<svg width="151" height="143" viewBox="0 0 151 143" fill="none" xmlns="http://www.w3.org/2000/svg">
<path d="M119.542 41.7083C119.542 35.1542 113.879 29.7917 106.958 29.7917H94.375C90.9146 29.7917 88.0833 32.4729 88.0833 35.75C88.0833 39.0271 90.9146 41.7083 94.375 41.7083H106.958V57.4979L85.0634 83.4167H62.9167V59.5833C62.9167 56.3062 60.0854 53.625 56.625 53.625H37.75C23.8454 53.625 12.5833 64.2904 12.5833 77.4583V89.375C12.5833 92.6521 15.4146 95.3333 18.875 95.3333H25.1667C25.1667 105.224 33.5975 113.208 44.0417 113.208C54.4858 113.208 62.9167 105.224 62.9167 95.3333H85.0634C88.9013 95.3333 92.4875 93.665 94.8783 90.8646L116.773 64.9458C118.598 62.8008 119.542 60.1792 119.542 57.4979V41.7083ZM44.0417 101.292C40.5813 101.292 37.75 98.6104 37.75 95.3333H50.3333C50.3333 98.6104 47.5021 101.292 44.0417 101.292Z" fill="black"/>
<path d="M37.75 35.75H56.625C60.0854 35.75 62.9167 38.4313 62.9167 41.7083C62.9167 44.9854 60.0854 47.6667 56.625 47.6667H37.75C34.2896 47.6667 31.4583 44.9854 31.4583 41.7083C31.4583 38.4313 34.2896 35.75 37.75 35.75ZM119.542 77.4583C109.098 77.4583 100.667 85.4425 100.667 95.3333C100.667 105.224 109.098 113.208 119.542 113.208C129.986 113.208 138.417 105.224 138.417 95.3333C138.417 85.4425 129.986 77.4583 119.542 77.4583ZM119.542 101.292C116.081 101.292 113.25 98.6104 113.25 95.3333C113.25 92.0563 116.081 89.375 119.542 89.375C123.002 89.375 125.833 92.0563 125.833 95.3333C125.833 98.6104 123.002 101.292 119.542 101.292Z" fill="black"/>
</svg>
